<svg aria-hidden="true" style="position: absolute; width: 0; height: 0; overflow: hidden;" version="1.1" xmlns="http://www.w3.org/2000/svg" xmlns:xlink="http://www.w3.org/1999/xlink">
<defs>
<symbol id="dtek" viewBox="0 0 68 32">
<path fill="#565656" style="fill: var(--color1, #565656)" d="M3.702 4.353h-3.702v4.299h3.702c4.060 0 7.284 3.224 7.284 7.284s-3.224 7.284-7.284 7.284h-3.702v4.299h3.702c6.448 0 11.703-4.657 11.703-11.583 0.119-6.926-5.254-11.583-11.703-11.583zM13.136 27.639h4.418v-4.299h-4.418v4.299zM56.722 16.055l8.598-8.598v-3.105h-3.224l-10.031 10.031v-10.031h-38.929v4.299h8.24v18.868h4.538v-18.748h8.24c-1.552 1.911-2.388 4.418-2.388 7.284 0 6.926 5.374 11.583 11.703 11.583h8.598v-10.031l10.031 10.031h6.329l-11.703-11.583zM47.527 23.22h-3.941c-3.224 0-6.090-2.149-6.926-5.135h6.448v-4.18h-6.448c0.955-2.985 3.702-5.135 6.926-5.135h3.941v14.449z"></path>
</symbol>
<symbol id="yasno" viewBox="0 0 96 32">
<path fill="#565656" style="fill: var(--color1, #565656)" d="M15.472 12.836l-5.084 8.531c-0.832 1.388-1.17 2.306-1.17 3.65v4.613h-2.88v-4.613c0-1.478-0.225-2.239-1.057-3.65l-5.084-8.531h3.352l2.61 4.523c0.585 1.030 1.327 2.418 1.687 3.448 0.36-1.030 1.102-2.418 1.687-3.426l2.61-4.545h3.33z"></path>
<path fill="#565656" style="fill: var(--color1, #565656)" d="M22.805 17.27v2.038c-0.99-1.523-2.227-2.284-4.072-2.284-3.195 0-5.782 2.821-5.782 6.426s2.587 6.426 5.782 6.426c1.845 0 3.082-0.762 4.072-2.284v2.038h2.632v-12.36h-2.632zM19.273 27.435c-2.092 0-3.532-1.612-3.532-3.986s1.44-3.986 3.532-3.986c2.205 0 3.757 1.769 3.757 3.986s-1.552 3.986-3.757 3.986z"></path>
<path fill="#565656" style="fill: var(--color1, #565656)" d="M27.283 25.912h2.812c0.27 1.164 1.215 1.836 2.655 1.836 1.282 0 1.957-0.492 1.957-1.187 0-0.761-0.45-1.142-1.89-1.702l-2.047-0.806c-2.137-0.851-3.172-1.926-3.172-3.627 0-2.15 1.777-3.471 4.679-3.471 2.587 0 4.477 1.388 4.77 3.65h-2.7c-0.293-0.94-1.035-1.433-2.25-1.433-1.057 0-1.71 0.448-1.71 1.142 0 0.627 0.405 0.985 1.687 1.5l2.047 0.806c2.34 0.918 3.352 1.993 3.352 3.739 0 2.284-1.71 3.583-4.792 3.583s-5.197-1.59-5.4-4.031z"></path>
<path fill="#565656" style="fill: var(--color1, #565656)" d="M41.929 17.27v1.97c0.81-1.231 2.25-2.217 3.802-2.217 2.902 0 4.792 2.015 4.792 5.217v7.389h-2.79v-6.942c0-2.015-0.877-3.224-2.565-3.224-1.777 0-3.24 1.455-3.24 4.098v6.068h-2.677v-12.36h2.677z"></path>
<path fill="#565656" style="fill: var(--color1, #565656)" d="M58.487 17.023c-3.577 0-6.299 2.889-6.299 6.426 0 3.515 2.722 6.426 6.299 6.426 3.6 0 6.412-2.911 6.412-6.426 0-3.538-2.812-6.426-6.412-6.426zM58.487 27.301c-2.115 0-3.644-1.657-3.644-3.851 0-2.217 1.53-3.851 3.644-3.851 2.16 0 3.667 1.634 3.667 3.851 0 2.194-1.507 3.851-3.667 3.851z"></path>
<path fill="#565656" style="fill: var(--color1, #565656)" d="M75.629 29.63v-7.277c0-2.62 0.293-4.993 1.238-7.031-2.205-0.224-4.477-1.097-6.772-2.418l-6.322-3.628 4.094-7.076 6.322 3.628c2.002 1.142 3.757 1.724 5.534 1.724 1.755 0 3.509-0.582 5.512-1.724l6.322-3.628 4.095 7.076-6.322 3.628c-4.117 2.373-5.535 4.792-5.535 9.449v7.277h-8.166z"></path>
</symbol>
</defs>
</svg>
